<svg width="858" height="136" viewBox="0 0 858 136" fill="none" xmlns="http://www.w3.org/2000/svg">
<path fill-rule="evenodd" clip-rule="evenodd" d="M87.3577 84.8735C86.1549 84.2777 83.7491 82.9372 82.3207 82.1552C79.0505 80.1444 75.5171 78.7294 72.0588 77.091C65.2928 73.8513 57.8876 72.2874 50.9712 69.6808C43.6413 66.9253 35.0709 61.5259 28.9438 56.5733C13.0435 43.6521 2.29295 25.5176 0 5.07448L46.874 5.11171C55.0309 5.11171 63.1877 5.07448 71.3822 5.07448C78.4866 5.03724 84.9896 9.13331 86.7563 16.1711C87.4705 19.0011 87.2825 23.8047 87.3201 26.8209L87.3577 40.2263C87.3953 54.8977 87.696 70.2021 87.3577 84.8735ZM96.5671 84.799L96.5295 39.4071V26.4113C96.5295 23.842 96.4543 21.2354 96.6799 18.666C97.2813 11.442 102.845 6.34053 109.911 5.18619C112.467 4.92553 116.302 5.03724 118.97 5H134.42L184 5.07448C181.294 29.3158 167.761 48.6791 147.651 62.1217C138.066 68.2285 130.059 70.2393 119.534 73.7396C112.092 76.2345 103.371 80.8519 96.5671 84.799ZM44.8065 136L91.4925 89.0813C99.5367 97.6831 108.896 106.434 117.279 114.887L130.924 128.553C133.217 130.824 136.111 133.84 138.517 135.888H91.7557C76.344 135.851 60.143 135.628 44.8065 136Z" fill="black"/>
<path d="M270.1 134V2.95999H298.128V134H270.1ZM354.912 134V2.95999H382.94V134H354.912ZM283.204 55.012H367.652V76.488H283.204V55.012ZM436.944 134V81.038L388.168 2.95999H421.838L460.422 72.302H444.588L482.99 2.95999H513.748L464.972 81.038V134H436.944ZM519.011 134V2.95999H581.255C590.961 2.95999 599.273 4.65866 606.189 8.05599C613.226 11.4533 618.625 16.1853 622.387 22.252C626.269 28.3187 628.211 35.4167 628.211 43.546C628.211 51.6753 626.269 58.834 622.387 65.022C618.504 71.21 613.044 76.0633 606.007 79.582C599.091 82.9793 590.84 84.678 581.255 84.678H541.215V63.202H579.799C586.229 63.202 591.204 61.4427 594.723 57.924C598.363 54.284 600.183 49.552 600.183 43.728C600.183 37.904 598.363 33.2327 594.723 29.714C591.204 26.1953 586.229 24.436 579.799 24.436H547.039V134H519.011ZM635.468 134V2.95999H663.496V134H635.468ZM739.373 135.82C726.39 135.82 714.803 132.969 704.611 127.266C694.54 121.563 686.593 113.616 680.769 103.424C675.066 93.232 672.215 81.402 672.215 67.934C672.215 54.5873 675.066 42.9393 680.769 32.99C686.471 22.9193 694.358 15.0933 704.429 9.512C714.621 3.93066 726.208 1.14 739.191 1.14C752.416 1.14 764.064 3.93066 774.135 9.512C784.205 15.0933 792.092 22.9193 797.795 32.99C803.619 43.0607 806.531 54.7693 806.531 68.116C806.531 76.6093 805.135 84.6173 802.345 92.14C799.675 99.6627 795.307 106.154 789.241 111.614C783.295 117.074 775.409 121.139 765.581 123.808L739.373 135.82ZM739.191 114.708C746.835 114.708 753.569 112.827 759.393 109.066C765.217 105.305 769.767 99.9053 773.043 92.868C776.44 85.8307 778.139 77.4587 778.139 67.752C778.139 58.7733 776.501 50.9473 773.225 44.274C769.949 37.6007 765.399 32.444 759.575 28.804C753.751 25.164 746.956 23.344 739.191 23.344C731.547 23.344 724.813 25.164 718.989 28.804C713.165 32.444 708.615 37.6007 705.339 44.274C702.184 50.826 700.607 58.652 700.607 67.752C700.607 77.58 702.245 86.0127 705.521 93.05C708.797 99.966 713.347 105.305 719.171 109.066C724.995 112.827 731.668 114.708 739.191 114.708ZM739.373 135.82V116.164L813.265 112.524V134C805.499 134 798.523 134.061 792.335 134.182C786.268 134.425 780.505 134.667 775.045 134.91C769.585 135.153 764.003 135.335 758.301 135.456C752.598 135.699 746.289 135.82 739.373 135.82Z" fill="black"/>
</svg>
