<svg width="278" height="200" viewBox="0 0 278 200" fill="none" xmlns="http://www.w3.org/2000/svg">
<path fill-rule="evenodd" clip-rule="evenodd" d="M131.986 121.944C130.169 121.035 126.534 118.988 124.376 117.794C119.435 114.724 114.096 112.564 108.872 110.063C98.6488 105.117 87.4607 102.729 77.0108 98.7493C65.9363 94.5424 52.9875 86.299 43.7303 78.7379C19.707 59.0108 3.46435 31.3246 0 0.113708L70.8204 0.170545C83.1444 0.170545 95.4684 0.113708 107.849 0.113708C118.583 0.0568574 128.408 6.3104 131.077 17.0551C132.156 21.3758 131.873 28.7095 131.929 33.3144L131.986 53.7806C132.043 76.1797 132.497 99.5452 131.986 121.944ZM145.9 121.831L145.844 52.5298V32.689C145.844 28.7663 145.73 24.7868 146.071 20.8641C146.979 9.83514 155.385 2.04662 166.062 0.284252C169.924 -0.113701 175.716 0.0568505 179.749 0H203.09L278 0.113708C273.911 37.1234 253.466 66.6856 223.082 87.2086C208.599 96.5321 196.503 99.602 180.601 104.946C169.356 108.755 156.18 115.804 145.9 121.831ZM67.6968 200L138.233 128.368C150.387 141.501 164.528 154.861 177.193 167.766L197.809 188.63C201.273 192.098 205.646 196.703 209.281 199.829H138.631C115.346 199.773 90.8682 199.432 67.6968 200Z" fill="black"/>
</svg>
